# xmcd
#
# Track frame offsets:
#	150
#	17067
#	35995
#	53786
#	72142
#	88484
#	107224
#	131998
#	151341
#	171915
#	187710
#	208615
#	224799
#	239047
#	260030
#	275297
#	294543
#	317153
#	337783
#
# Disc length: 4718 seconds
#
# Revision: 1
# Processed by: cddbd v1.5.1PL0 Copyright (c) Steve Scherf et al.
# Submitted via: EasyCDDAExtractor 6.0.0.1
#
DISCID=30126c13
DTITLE=Various Artist - RNB blacksmith
DYEAR=2004
DGENRE=R&B
TTITLE0=all falls ddown
TTITLE1=yeah
TTITLE2=hey ya
TTITLE3=tipsy
TTITLE4=dirt off your shoulder
TTITLE5=splash
TTITLE6=hotel
TTITLE7=burn
TTITLE8=rubberband man
TTITLE9=naughty girl
TTITLE10=one call away
TTITLE11=she wants to move
TTITLE12=milkshake
TTITLE13=bling bling
TTITLE14=toxic
TTITLE15=love me just a while
TTITLE16=itsumo
TTITLE17=im still in love with you
TTITLE18=hey mama
EXTD=
EXTT0=
EXTT1=
EXTT2=
EXTT3=
EXTT4=
EXTT5=
EXTT6=
EXTT7=
EXTT8=
EXTT9=
EXTT10=
EXTT11=
EXTT12=
EXTT13=
EXTT14=
EXTT15=
EXTT16=
EXTT17=
EXTT18=
PLAYORDER=
